<svg width="115" height="270" viewBox="0 0 115 270" fill="none" xmlns="http://www.w3.org/2000/svg">
<path d="M60.8075 44.5176C60.8075 44.5176 66.1593 49.3318 73.8075 55.5176" stroke="black" stroke-width="1.5" stroke-linecap="round" stroke-linejoin="round"/>
<path d="M70.3018 113.295C70.3018 113.295 89.8076 157.018 78.8076 204.518" stroke="black" stroke-width="1.5"/>
<path d="M61.3075 112.517C61.3075 112.517 65.8075 146.517 57.3075 203.017M15.3075 203.017C15.3075 203.017 13.7036 130.584 13.7036 99.3845" stroke="black" stroke-width="1.5"/>
<path d="M51.5239 13.7184V28.4873L33.2279 32.9843V8.06039L51.5239 3.56372V13.7184Z" fill="#EDEEEF"/>
<path d="M41.1887 18.8282C41.4588 18.8282 41.6778 18.6092 41.6778 18.3391C41.6778 18.0689 41.4588 17.8499 41.1887 17.8499C40.9185 17.8499 40.6995 18.0689 40.6995 18.3391C40.6995 18.6092 40.9185 18.8282 41.1887 18.8282Z" fill="black"/>
<path d="M48.7023 18.8282C48.9725 18.8282 49.1915 18.6092 49.1915 18.3391C49.1915 18.0689 48.9725 17.8499 48.7023 17.8499C48.4322 17.8499 48.2131 18.0689 48.2131 18.3391C48.2131 18.6092 48.4322 18.8282 48.7023 18.8282Z" fill="black"/>
<path d="M46.4982 21.2571V13.7183H50.2746" stroke="black" stroke-width="1.5" stroke-linecap="round" stroke-linejoin="round"/>
<path d="M40.2671 13.7186H44.0439" stroke="black" stroke-width="1.5" stroke-linecap="round" stroke-linejoin="round"/>
<path d="M34.4329 17.5811V20.1991C33.0207 20.1991 31.8759 19.0543 31.8759 17.6421C31.8759 17.5636 31.8793 17.4861 31.8863 17.4093C32.0296 15.8215 34.4329 15.9868 34.4329 17.5811Z" fill="#EDEEEF"/>
<path d="M34.4329 20.1991C33.0207 20.1991 31.8759 19.0543 31.8759 17.6421" stroke="black" stroke-width="1.5" stroke-linecap="round" stroke-linejoin="round"/>
<path d="M44.8462 23.1159C43.4169 23.1159 42.2582 21.9572 42.2582 20.5278" stroke="black" stroke-width="1.5" stroke-linecap="round" stroke-linejoin="round"/>
<path d="M51.5239 28.4878L33.2278 32.9847" stroke="black" stroke-width="1.5" stroke-linecap="round" stroke-linejoin="round"/>
<path d="M46.498 21.2632L44.8462 21.6692" stroke="black" stroke-width="1.5" stroke-linecap="round" stroke-linejoin="round"/>
<path d="M34.4329 17.2168C34.4329 17.2168 36.7647 12.9628 36.8797 11.0658L37.512 13.7182C37.512 13.7182 41.8235 12.388 44.4678 9.11128V12.4838C44.4678 12.4838 49.5543 11.4107 50.8626 8.01904V11.1808C50.8626 11.1808 52.4584 10.0885 52.8608 8.42145" stroke="black" stroke-width="1.5" stroke-linecap="round" stroke-linejoin="round"/>
<path d="M51.524 14.0552C51.524 14.0552 60.82 4.19326 48.2132 1.46578C39.1792 -0.488739 34.4329 4.34008 34.4329 4.34008C34.4329 4.34008 31.3036 5.83471 30.0389 8.36409C28.7742 10.8935 28.2538 17.3894 33.2279 22.2182" stroke="black" stroke-width="1.5" stroke-linecap="round" stroke-linejoin="round"/>
<path d="M13.7036 59.4321V99.3847L70.3017 113.296V68.7993C70.3017 53.0217 59.5305 39.2825 44.2089 35.5167H44.2088C36.8611 33.7107 29.091 35.3827 23.1364 40.051C17.1818 44.7193 13.7036 51.8657 13.7036 59.4321V59.4321Z" stroke="black"/>
<path d="M51.524 89.5989C51.524 89.5989 51.5555 56.6935 70.3017 56.4831C89.048 56.2727 82.5243 34.7932 82.5243 34.7932L113.249 41.7521C113.249 41.7521 118.3 71.2141 92.4151 80.0476C79.1875 84.5618 84.8475 115.346 84.8475 115.346L50.8627 111.409V106.871" stroke="black" stroke-width="1.5"/>
<path d="M18.5518 44.749C18.5518 44.749 0.772266 68.0345 1.00221 95.3978C1.23216 122.761 43.5418 120.232 59.6379 98.3871C59.6379 98.3871 70.2153 91.0289 68.6057 89.4193C66.9961 87.8097 59.9498 89.3486 59.9498 89.3486C59.9498 89.3486 61.2475 85.6252 59.293 86.545C57.3384 87.4647 54.7188 89.3864 54.7188 89.3864L29.0288 91.0931L34.8862 67.1147" stroke="black" stroke-width="1.5" stroke-linecap="round" stroke-linejoin="round"/>
<path d="M18.5518 44.749C18.5518 44.749 0.772266 68.0345 1.00221 95.3978C1.23216 122.761 43.5418 120.232 59.6379 98.3871C59.6379 98.3871 70.2153 91.0289 68.6057 89.4193C66.9961 87.8097 59.9498 89.3486 59.9498 89.3486C59.9498 89.3486 61.2475 85.6252 59.293 86.545C57.3384 87.4647 54.7188 89.3864 54.7188 89.3864L29.0288 91.0931L34.8862 67.1147" stroke="black" stroke-width="1.5" stroke-linecap="round" stroke-linejoin="round"/>
<path d="M14.166 113.73V133.107C41.5864 126.668 55.3446 103.217 55.3446 103.217L55.3437 103.216C44.1483 113.783 26.3259 117.921 14.166 113.73Z" fill="black"/>
<path d="M79.5856 109.367C79.5856 109.367 99.4182 114.886 103.385 105.745C107.351 96.605 100.281 71.4261 100.281 71.4261C100.281 71.4261 102.35 66.9422 101.315 65.735C100.281 64.5278 99.2458 65.735 99.2458 65.735C99.2458 65.735 97.6074 57.802 95.1068 58.4056C92.6061 59.0092 90.7523 71.286 89.8076 81.0173" stroke="black" stroke-width="1.5" stroke-linecap="round" stroke-linejoin="round"/>
</svg>
