<svg width="580" height="536" viewBox="0 0 580 536" fill="none" xmlns="http://www.w3.org/2000/svg">
<path d="M174.216 79.3008L181.084 72.6061" stroke="#949494" stroke-width="1.5"/>
<path d="M167.348 62.6265L163.103 71.2276L153.612 72.6065L160.48 79.3011L158.859 88.7542L167.348 84.2911L175.837 88.7542" stroke="#949494" stroke-width="1.5"/>
<path d="M136.313 79.3008L143.181 72.6061" stroke="#949494" stroke-width="1.5"/>
<path d="M129.445 62.6265L125.201 71.2276L115.709 72.6065L122.577 79.3011L120.956 88.7542L129.445 84.2911L137.935 88.7542" stroke="#949494" stroke-width="1.5"/>
<path d="M98.4099 79.3008L105.278 72.6061" stroke="#949494" stroke-width="1.5"/>
<path d="M91.5414 62.6265L87.297 71.2276L77.8057 72.6065L84.6739 79.3011L83.0519 88.7542L91.5414 84.2911L100.031 88.7542" stroke="#949494" stroke-width="1.5"/>
<path d="M60.5071 79.3008L67.3751 72.6061" stroke="#949494" stroke-width="1.5"/>
<path d="M53.6388 62.6265L49.3937 71.2276L39.9023 72.6065L46.7706 79.3011L45.1493 88.7542L53.6388 84.2911L62.1283 88.7542" stroke="#949494" stroke-width="1.5"/>
<path d="M22.604 79.3008L29.4721 72.6061" stroke="#949494" stroke-width="1.5"/>
<path d="M15.7357 62.6265L11.4913 71.2276L2 72.6065L8.86746 79.3011L7.24619 88.7542L15.7357 84.2911L24.2252 88.7542" stroke="#949494" stroke-width="1.5"/>
<path d="M276.154 471.454L305.276 445.691H349.374V371.349H406.784V279.341L479.171 343.379V465.566H517.444V519.69H533.253V504.577H561.542V534.803" stroke="#949494"/>
<path d="M579.847 534.804H161.334" stroke="#949494" stroke-width="1.5"/>
<path d="M171.996 221.536C171.996 221.536 135.229 348.574 119.424 501.713L107.932 509.358L158.094 533.275L206.077 398.638" stroke="#949494"/>
<path d="M187.562 225.563L218.431 520.667L210.237 534.944M272.087 245.688L278.345 534.944" stroke="#949494"/>
<path d="M202.225 80.8915C202.225 89.6347 208.194 97.2483 216.685 99.3352L234.678 103.758" stroke="#949494" stroke-width="1.5"/>
<path d="M220.557 78.6479C221.036 78.6479 221.425 78.2594 221.425 77.7802C221.425 77.301 221.036 76.9125 220.557 76.9125C220.078 76.9125 219.689 77.301 219.689 77.7802C219.689 78.2594 220.078 78.6479 220.557 78.6479Z" fill="#949494"/>
<path d="M207.23 78.6479C207.709 78.6479 208.098 78.2594 208.098 77.7802C208.098 77.301 207.709 76.9125 207.23 76.9125C206.751 76.9125 206.362 77.301 206.362 77.7802C206.362 78.2594 206.751 78.6479 207.23 78.6479Z" fill="#949494"/>
<path d="M211.14 82.9562V69.5837H206.011" stroke="#949494" stroke-width="1.5"/>
<path d="M222.192 69.584H215.493" stroke="#949494" stroke-width="1.5"/>
<path d="M232.541 81.0794C235.046 81.0794 237.076 79.0488 237.076 76.5438" stroke="#949494" stroke-width="1.5"/>
<path d="M214.803 84.5187C215.976 85.6916 217.877 85.6916 219.05 84.5187" stroke="#949494" stroke-width="1.5" stroke-linecap="round" stroke-linejoin="round"/>
<path d="M211.14 82.9672L214.07 83.6874" stroke="#949494" stroke-width="1.5" stroke-linecap="round"/>
<path d="M171.996 150.669V221.536L272.388 246.211V167.284C272.388 139.299 253.282 114.928 226.105 108.249H226.105C213.072 105.046 199.29 108.011 188.728 116.292C178.166 124.572 171.996 137.248 171.996 150.669V150.669Z" stroke="#949494"/>
<path d="M201.538 77.7798L191.596 72.3288C191.596 72.3288 206.126 30.7264 235.952 49.0804C265.777 67.4344 234.678 88.3886 234.678 88.3886" stroke="#949494" stroke-width="1.5"/>
<path d="M200.824 70.5954C200.824 70.5954 220.558 67.4144 227.431 57.767C227.431 57.767 224.636 71.7357 232.919 75.1422" stroke="#949494" stroke-width="1.5"/>
<path d="M248.885 119.266C248.885 119.266 282.907 143.192 297.59 176.588C297.59 176.588 292.39 115.155 299.732 105.06C303.607 99.7312 307.991 106.965 307.991 106.965C307.991 106.965 327.263 98.9422 327.875 102.001C328.486 105.06 317.168 116.684 317.168 116.684C317.168 116.684 333.687 192.73 320.839 214.449C307.991 236.168 242.834 192.854 242.834 192.854" stroke="#949494" stroke-width="1.5"/>
<path d="M249.854 197.27C249.854 197.27 249.991 227.094 272.388 239.782V209.622L249.854 197.27Z" fill="#949494"/>
<path d="M189.141 115.977C189.141 115.977 158.916 138.376 153.205 160.924C153.205 160.924 143.825 99.8965 138.522 101.306C133.22 102.715 131.996 106.965 131.996 106.965C131.996 106.965 115.274 98.2169 112.827 101.282C110.379 104.346 127.51 121.069 127.51 121.069C127.51 121.069 117.147 193.999 129.141 203.866C154.429 224.667 171.996 194.893 171.996 194.893" stroke="#949494" stroke-width="1.5"/>
<path d="M507.501 112.573L407.327 112.573L382.372 138.623V112.573H374.309L341.291 112.573V1.00005L507.501 1.00005V112.573Z" stroke="#949494"/>
<rect x="462.273" y="61.8945" width="10.2167" height="10.2167" transform="rotate(-180 462.273 61.8945)" stroke="#949494"/>
<rect x="429.504" y="61.8945" width="10.2166" height="10.2167" transform="rotate(-180 429.504 61.8945)" stroke="#949494"/>
<rect x="396.736" y="61.8945" width="10.2167" height="10.2167" transform="rotate(-180 396.736 61.8945)" stroke="#949494"/>
</svg>
